<svg width="112" height="41" viewBox="0 0 112 41" fill="none" xmlns="http://www.w3.org/2000/svg">
<path d="M1.034 38.667V30.967H2.211L5.577 36.588H4.961L8.272 30.967H9.449L9.46 38.667H8.107L8.096 33.09H8.382L5.566 37.787H4.928L2.068 33.09H2.398V38.667H1.034ZM19.2068 38.667V30.967H22.3748C23.0568 30.967 23.6398 31.077 24.1238 31.297C24.6151 31.517 24.9928 31.8323 25.2568 32.243C25.5208 32.6537 25.6528 33.1413 25.6528 33.706C25.6528 34.2707 25.5208 34.7583 25.2568 35.169C24.9928 35.5723 24.6151 35.884 24.1238 36.104C23.6398 36.3167 23.0568 36.423 22.3748 36.423H19.9988L20.6368 35.774V38.667H19.2068ZM24.2448 38.667L22.2978 35.873H23.8268L25.7848 38.667H24.2448ZM20.6368 35.928L19.9988 35.246H22.3088C22.9394 35.246 23.4124 35.1103 23.7278 34.839C24.0504 34.5677 24.2118 34.19 24.2118 33.706C24.2118 33.2147 24.0504 32.837 23.7278 32.573C23.4124 32.309 22.9394 32.177 22.3088 32.177H19.9988L20.6368 31.473V35.928ZM34.9196 38.667V30.967H36.3496V38.667H34.9196ZM47.6612 38.667V32.177H45.1092V30.967H51.6432V32.177H49.0912V38.667H47.6612ZM62.0527 38.667V32.177H59.5007V30.967H66.0347V32.177H63.4827V38.667H62.0527ZM74.7748 38.667V30.967H76.2048V38.667H74.7748ZM87.2304 36.852L87.1534 35.158L91.1904 30.967H92.7964L89.4414 34.531L88.6494 35.4L87.2304 36.852ZM85.9544 38.667V30.967H87.3844V38.667H85.9544ZM91.3224 38.667L88.3744 35.158L89.3204 34.113L92.9944 38.667H91.3224Z" fill="black"/>
<g clip-path="url(#clip0_224_1924)">
<path d="M108 0H112L108 7V0Z" fill="black"/>
<path d="M8 0H1V23H8V0Z" fill="black"/>
<path d="M108 0H5V7H108V0Z" fill="black"/>
<path d="M98 16H6V23H98V16Z" fill="black"/>
<path d="M99 23L103 16H96L96.03 23H99Z" fill="black"/>
</g>
<defs>
<clipPath id="clip0_224_1924">
<rect width="111" height="23" fill="white" transform="translate(1)"/>
</clipPath>
</defs>
</svg>
